PathFileType  4	(X/Y/Z) C:\Users\antoi\Documents\MyRepositories\mobilecap\ResultsAnalysis
DataRate	CameraRate	NumFrames	NumMarkers	Units	OrigDataRate	OrigDataStartFrame	OrigNumFrames
100.0	100.0	4	51	mm	100.0	68	271
Frame#	Time	r_knee			r_shank_antsup			r_ankle			r_calc			r_5meta			r_toe			L_knee			L_shank_antsup			L_ankle			L_calc			L_5meta			L_toe			r_sh2			r_sh3			r_sh4			L_sh2			L_sh3			r_thigh1			r_thigh2			r_thigh3			r_thigh4			r_thigh5			L_thigh1			L_thigh2			L_thigh3			L_thigh4			r.ASIS			r.PSIS			L.ASIS			L.PSIS			C7			R_Shoulder			L_Shoulder			R_Sternum			L_Sternum			R_humerus			R_elbow_med			R_elbow_lat			R_forearm			R_wrist_radius			R_wrist_ulna			L_humerus			L_elbow_med			L_elbow_lat			L_forearm			L_wrist_radius			L_wrist_ulna			R_HJC			L_HJC			R_HJC_reg			L_HJC_reg			
		X1	Y1	Z1	X2	Y2	Z2	X3	Y3	Z3	X4	Y4	Z4	X5	Y5	Z5	X6	Y6	Z6	X7	Y7	Z7	X8	Y8	Z8	X9	Y9	Z9	X10	Y10	Z10	X11	Y11	Z11	X12	Y12	Z12	X13	Y13	Z13	X14	Y14	Z14	X15	Y15	Z15	X16	Y16	Z16	X17	Y17	Z17	X18	Y18	Z18	X19	Y19	Z19	X20	Y20	Z20	X21	Y21	Z21	X22	Y22	Z22	X23	Y23	Z23	X24	Y24	Z24	X25	Y25	Z25	X26	Y26	Z26	X27	Y27	Z27	X28	Y28	Z28	X29	Y29	Z29	X30	Y30	Z30	X31	Y31	Z31	X32	Y32	Z32	X33	Y33	Z33	X34	Y34	Z34	X35	Y35	Z35	X36	Y36	Z36	X37	Y37	Z37	X38	Y38	Z38	X39	Y39	Z39	X40	Y40	Z40	X41	Y41	Z41	X42	Y42	Z42	X43	Y43	Z43	X44	Y44	Z44	X45	Y45	Z45	X46	Y46	Z46	X47	Y47	Z47	X48	Y48	Z48	X49	Y49	Z49	X50	Y50	Z50	X51	Y51	Z51	

68	0.67000000	-1152.79581	793.08001	-440.13018	-1132.99310	692.27887	-448.66666	-1283.05074	399.25330	-454.70650	-1345.38822	364.67232	-502.47443	-1163.91147	352.75614	-416.74664	-1132.21844	382.86280	-470.18275	-1149.92261	797.40047	-720.85216	-1123.01000	703.89739	-706.28256	-1271.71023	403.96900	-712.19447	-1343.98656	360.73519	-669.03285	-1167.01736	352.08690	-751.64607	-1121.56611	377.06586	-695.62513	-1168.90875	584.44239	-450.55620	-1193.55272	710.57600	-406.01379	-1235.43445	602.18717	-403.46985	-1194.28266	738.68562	-749.93951	-1232.86047	623.30668	-758.15367	-1124.07019	1073.99423	-412.48818	-1109.01348	965.64919	-432.63639	-1153.79561	928.15271	-398.35192	-1233.62616	1049.99482	-389.41172	-1208.71987	938.10814	-408.86157	-1106.84131	1047.59492	-736.15759	-1084.32221	912.00217	-708.65172	-1206.15912	1024.40916	-775.67539	-1185.72304	896.48315	-744.31950	-1102.07217	1248.92776	-456.40157	-1298.03648	1324.49034	-533.29464	-1107.53912	1252.47840	-708.42490	-1297.26660	1324.56393	-629.94614	-1143.26720	1763.23347	-574.36377	-1087.01126	1716.11236	-407.44198	-1065.45005	1715.11316	-724.73488	-1041.19412	1663.16107	-546.27294	-1040.57301	1665.62570	-592.12723	-1071.35226	1580.43679	-356.90596	-1189.56277	1399.14487	-387.82842	-1166.60853	1405.90032	-325.52448	-1121.84801	1332.49976	-310.16842	-1094.86783	1164.49161	-345.05199	-1125.45480	1168.58482	-305.42432	-1061.53630	1573.22943	-783.27531	-1180.40990	1396.60711	-747.04369	-1148.54404	1403.37525	-819.58552	-1116.45484	1336.58896	-832.68173	-1127.50332	1155.67336	-824.86465	-1158.57783	1173.18358	-863.35006	-1202.33923	1181.28868	-481.19090	-1203.14406	1183.81736	-670.73478	-1192.06039	1191.18065	-492.65874	-1190.72350	1191.30267	-659.03889	
69	0.68000000	-1148.32805	791.68441	-440.55550	-1129.53205	690.75794	-448.99299	-1282.84694	399.24836	-454.74277	-1345.31528	364.73354	-502.50298	-1163.80901	352.57078	-416.78213	-1132.02418	382.49222	-470.25201	-1145.52137	796.01605	-720.57492	-1119.22896	702.17717	-706.01439	-1271.47806	404.02318	-712.28006	-1343.91260	360.79306	-668.99620	-1166.94059	352.09459	-751.63851	-1121.45866	376.92853	-695.56819	-1166.40989	583.11184	-450.86042	-1190.01205	709.33914	-406.39990	-1232.65128	601.90667	-403.52753	-1190.11526	737.40109	-749.40679	-1229.87201	622.87582	-758.46162	-1121.89588	1072.69304	-412.74394	-1105.96264	964.68307	-432.75935	-1149.95560	926.52216	-398.58234	-1231.17468	1047.74541	-388.93287	-1205.25559	936.09283	-408.73984	-1104.98803	1046.78104	-735.27098	-1081.00966	911.53439	-707.95365	-1202.91174	1023.13486	-776.19753	-1181.89700	894.77571	-744.30895	-1101.70150	1246.39467	-456.62947	-1296.83773	1323.60010	-532.80218	-1107.36301	1250.03828	-708.27437	-1296.56650	1323.89050	-630.02905	-1137.47741	1760.75998	-573.90642	-1081.02517	1712.85290	-407.04915	-1059.32949	1711.99759	-724.24948	-1036.32936	1660.02120	-545.94920	-1035.80660	1662.22808	-591.71866	-1066.11571	1577.10127	-356.78235	-1184.84727	1395.88524	-387.73894	-1161.86708	1402.86883	-324.75481	-1117.12748	1329.47913	-309.52834	-1090.02201	1161.58806	-344.96075	-1120.63982	1165.51237	-305.46942	-1055.49163	1570.19818	-782.15229	-1173.43141	1393.59780	-746.02846	-1142.14114	1400.22834	-819.34738	-1109.45465	1333.57605	-832.21580	-1120.77768	1152.56964	-823.53943	-1151.78658	1170.00033	-861.99497	-1202.54200	1179.62869	-481.14606	-1203.56886	1182.23793	-670.68769	-1191.78212	1189.34057	-492.49807	-1191.32135	1189.83809	-658.64355	
70	0.69000000	-1143.56428	790.18793	-441.17215	-1125.86363	689.04191	-449.51347	-1282.54235	399.17632	-454.78822	-1345.19558	364.83319	-502.54402	-1163.74410	352.34105	-416.72489	-1131.77299	382.08636	-470.32410	-1140.91637	794.58618	-720.51981	-1115.45326	700.30400	-705.92111	-1271.24625	403.96937	-712.09219	-1343.82280	360.85376	-668.97056	-1166.86239	352.09041	-751.62569	-1121.33875	376.75378	-695.51255	-1163.78905	581.82470	-451.24379	-1186.45945	707.69764	-407.07478	-1229.67454	601.38678	-403.78821	-1185.42341	736.56347	-750.41853	-1226.90980	622.20333	-758.59434	-1119.93241	1071.33333	-412.86150	-1102.96220	963.59005	-432.88720	-1146.14030	924.93586	-398.71381	-1228.62182	1045.29826	-388.36428	-1201.67518	934.02205	-408.59096	-1103.00518	1045.93110	-734.41860	-1077.54418	910.91821	-707.10605	-1200.83821	1021.58138	-778.49865	-1177.84103	893.02614	-744.52043	-1100.89064	1244.02908	-456.52629	-1295.63846	1322.49819	-532.28429	-1106.98980	1247.60219	-707.87004	-1295.37480	1322.78444	-629.57754	-1131.72275	1758.09124	-573.44550	-1074.86767	1709.41225	-406.56810	-1053.30029	1708.53613	-723.60500	-1031.49524	1656.47769	-545.45838	-1031.14913	1658.54151	-591.15441	-1060.69427	1573.52169	-356.60709	-1179.77458	1392.33447	-387.79324	-1156.68419	1399.53483	-323.90306	-1111.84754	1326.11942	-308.88906	-1084.41477	1158.46126	-345.07317	-1115.08303	1162.10445	-305.66407	-1049.24543	1566.85607	-781.15815	-1166.93399	1390.41600	-745.32092	-1135.26849	1396.62644	-818.79323	-1102.03802	1330.21876	-831.58923	-1113.15035	1149.12206	-821.96792	-1144.05359	1166.41284	-860.71784	-1202.22971	1177.93424	-480.72790	-1203.52479	1180.46874	-670.26894	-1191.49990	1187.56695	-492.32946	-1191.05316	1188.05658	-658.28223	
71	0.70000000	-1138.82434	788.68740	-441.68143	-1121.89659	687.22879	-450.05647	-1282.15601	399.22090	-454.86095	-1345.07646	364.94989	-502.49095	-1163.70455	352.19584	-416.61488	-1131.55235	381.68533	-470.40633	-1136.21657	793.09798	-720.65253	-1111.76648	698.28208	-705.97893	-1271.08214	403.76181	-711.56079	-1343.74573	360.92057	-668.96038	-1166.81361	352.07444	-751.60505	-1121.24614	376.57459	-695.44794	-1161.07862	580.52714	-451.80721	-1182.43465	706.18301	-407.67665	-1226.51138	600.60474	-404.03846	-1180.64350	735.95811	-752.11428	-1224.00593	621.31085	-758.40204	-1118.02761	1069.86593	-412.94333	-1100.01097	962.35504	-433.03065	-1142.52067	923.36731	-398.84249	-1226.04818	1042.65477	-387.83577	-1198.09717	931.75236	-408.40546	-1100.91013	1045.04491	-733.48558	-1074.06161	910.17352	-706.08054	-1198.70935	1019.63055	-780.95245	-1173.68917	891.20594	-744.98389	-1099.84976	1241.54043	-456.30765	-1294.40875	1321.21654	-531.89315	-1106.49247	1245.22624	-707.47124	-1294.14471	1321.42288	-629.03493	-1126.03717	1755.21351	-573.14200	-1068.66409	1705.57326	-406.18466	-1047.27547	1704.74822	-722.83992	-1026.61780	1652.84664	-545.00048	-1026.45105	1654.74587	-590.78311	-1055.10818	1569.74282	-356.42311	-1174.45079	1388.76717	-387.06703	-1151.06326	1395.79207	-322.99113	-1106.10131	1322.44274	-308.35054	-1077.96341	1155.07395	-345.31331	-1108.69629	1158.42397	-305.79813	-1042.80811	1563.26323	-780.22800	-1160.64067	1387.14160	-745.11997	-1127.86855	1392.59655	-818.02281	-1094.50889	1326.39487	-830.39260	-1104.48787	1145.24071	-820.23054	-1135.24871	1162.34895	-859.39415	-1201.70629	1176.08006	-480.32963	-1203.25483	1178.61104	-669.86891	-1191.05416	1185.77496	-492.02804	-1190.60200	1186.12668	-657.87028	
